<svg width="25" height="26" viewBox="0 0 25 26" fill="none" xmlns="http://www.w3.org/2000/svg">
<g clip-path="url(#clip0_41_11)">
<path d="M21.1636 4.73411C19.5702 3.97376 17.8615 3.41354 16.0749 3.09265C16.0424 3.08646 16.0099 3.10195 15.9932 3.13287C15.7734 3.53938 15.53 4.06964 15.3595 4.48645C13.438 4.18724 11.5263 4.18724 9.64413 4.48645C9.47362 4.06039 9.22138 3.53938 9.00063 3.13287C8.98388 3.10296 8.95136 3.08748 8.91884 3.09265C7.13329 3.41248 5.4246 3.97269 3.83017 4.73411C3.81635 4.7403 3.80453 4.75061 3.79667 4.76402C0.555652 9.79974 -0.332239 14.7117 0.103308 19.5627C0.105261 19.5865 0.118103 19.6091 0.135828 19.6236C2.27416 21.2567 4.34555 22.2482 6.37841 22.9054C6.41093 22.9157 6.4454 22.9034 6.4661 22.8755C6.94696 22.1925 7.37563 21.4724 7.74315 20.7151C7.76483 20.6708 7.74413 20.6182 7.6998 20.6006C7.01986 20.3324 6.37245 20.0053 5.74965 19.6339C5.70038 19.604 5.69643 19.5307 5.74179 19.4957C5.87284 19.3935 6.00395 19.2872 6.12909 19.1799C6.15175 19.1603 6.18329 19.1562 6.2099 19.1686C10.3013 21.1113 14.7308 21.1113 18.7739 19.1686C18.8005 19.1552 18.832 19.1593 18.8557 19.1789C18.9809 19.2862 19.1119 19.3935 19.2439 19.4956C19.2893 19.5307 19.2863 19.604 19.2371 19.6339C18.6143 20.0125 17.9668 20.3323 17.2859 20.5995C17.2416 20.6171 17.2219 20.6707 17.2436 20.7151C17.619 21.4713 18.0477 22.1914 18.5197 22.8744C18.5394 22.9033 18.5749 22.9157 18.6074 22.9054C20.6501 22.2482 22.7215 21.2567 24.8598 19.6235C24.8786 19.6091 24.8904 19.5874 24.8923 19.5637C25.4136 13.9554 24.0192 9.08367 21.196 4.76498C21.1892 4.75061 21.1774 4.7403 21.1636 4.73411ZM8.35424 16.6089C7.12245 16.6089 6.10746 15.4328 6.10746 13.9884C6.10746 12.544 7.10272 11.3679 8.35424 11.3679C9.61552 11.3679 10.6207 12.5544 10.601 13.9884C10.601 15.4328 9.60565 16.6089 8.35424 16.6089ZM16.6612 16.6089C15.4295 16.6089 14.4145 15.4328 14.4145 13.9884C14.4145 12.544 15.4098 11.3679 16.6612 11.3679C17.9226 11.3679 18.9277 12.5544 18.908 13.9884C18.908 15.4328 17.9226 16.6089 16.6612 16.6089Z" fill="white"/>
</g>
<defs>
<clipPath id="clip0_41_11">
<rect width="25" height="26" fill="white"/>
</clipPath>
</defs>
</svg>
