<svg width="24" height="20" viewBox="0 0 24 20" fill="none" xmlns="http://www.w3.org/2000/svg">
<path d="M20.317 2.36979C18.7874 1.66793 17.147 1.15081 15.4319 0.854606C15.4007 0.848887 15.3695 0.863184 15.3534 0.891731C15.1424 1.26697 14.9087 1.75643 14.7451 2.14118C12.9004 1.865 11.0652 1.865 9.25833 2.14118C9.09465 1.7479 8.85249 1.26697 8.64057 0.891731C8.62449 0.864121 8.59327 0.849825 8.56205 0.854606C6.84793 1.14982 5.20758 1.66695 3.67693 2.36979C3.66366 2.37551 3.65232 2.38503 3.64477 2.3974C0.533395 7.04576 -0.31898 11.5799 0.0991454 16.0578C0.10102 16.0796 0.113349 16.1006 0.130364 16.1139C2.18316 17.6215 4.17169 18.5366 6.12324 19.1433C6.15446 19.1528 6.18755 19.1414 6.20743 19.1157C6.66905 18.4853 7.08057 17.8205 7.4334 17.1215C7.45421 17.0806 7.43433 17.032 7.39177 17.0158C6.73904 16.7682 6.11752 16.4663 5.51963 16.1235C5.47233 16.0959 5.46854 16.0282 5.51208 15.9958C5.6379 15.9016 5.76376 15.8035 5.8839 15.7044C5.90565 15.6863 5.93593 15.6825 5.96147 15.6939C9.88922 17.4872 14.1415 17.4872 18.0229 15.6939C18.0484 15.6815 18.0787 15.6854 18.1014 15.7034C18.2216 15.8025 18.3474 15.9015 18.4741 15.9958C18.5176 16.0282 18.5148 16.0958 18.4675 16.1234C17.8696 16.4729 17.2481 16.7681 16.5945 17.0148C16.5519 17.031 16.533 17.0805 16.5538 17.1214C16.9142 17.8195 17.3258 18.4842 17.7789 19.1147C17.7978 19.1414 17.8318 19.1528 17.863 19.1433C19.8241 18.5366 21.8126 17.6214 23.8654 16.1139C23.8834 16.1006 23.8947 16.0805 23.8966 16.0587C24.397 10.8817 23.0584 6.38478 20.3482 2.39829C20.3416 2.38503 20.3303 2.37551 20.317 2.36979ZM8.02004 13.3312C6.83752 13.3312 5.86313 12.2456 5.86313 10.9122C5.86313 9.57893 6.81858 8.49331 8.02004 8.49331C9.23086 8.49331 10.1958 9.5885 10.1769 10.9122C10.1769 12.2456 9.2214 13.3312 8.02004 13.3312ZM15.9947 13.3312C14.8123 13.3312 13.8379 12.2456 13.8379 10.9122C13.8379 9.57893 14.7933 8.49331 15.9947 8.49331C17.2056 8.49331 18.1705 9.5885 18.1516 10.9122C18.1516 12.2456 17.2057 13.3312 15.9947 13.3312Z" fill="white"/>
</svg>
