<svg width="241" height="325" viewBox="0 0 241 325" fill="none" xmlns="http://www.w3.org/2000/svg">
<path opacity="0.05" d="M0 1H239.998M0 22.5614H239.998M0 44.1229H239.998M0 65.6843H239.998M0 87.2457H239.998M0 108.807H239.998M0 130.369H239.998M0 151.93H239.998M0 173.491H239.998M0 195.053H239.998M0 216.614H239.998M0 238.176H239.998M0 259.737H239.998M0 281.299H239.998M0 302.86H239.998M0 324.422H239.998" stroke="white"/>
<path opacity="0.05" d="M0.779311 1L0.779297 324.422M20.7144 1L20.7144 324.422M40.6494 1L40.6494 324.422M60.5845 1L60.5845 324.422M80.5196 1L80.5196 324.422M100.455 1L100.455 324.422M120.39 1L120.39 324.422M140.325 1L140.325 324.422M160.26 1L160.26 324.422M180.195 1L180.195 324.422M200.13 1L200.13 324.422M220.065 1L220.065 324.422M240 1L240 324.422" stroke="white"/>
</svg>
