<svg width="19" height="20" viewBox="0 0 19 20" fill="none" xmlns="http://www.w3.org/2000/svg">
<path d="M4.43271 3.46875C4.00379 3.46875 3.65479 3.82067 3.65479 4.25327C3.65479 4.68587 4.00375 5.03779 4.43271 5.03779C4.86167 5.03779 5.21064 4.68587 5.21064 4.25327C5.21064 3.82067 4.86164 3.46875 4.43271 3.46875Z" fill="white"/>
<path d="M3.65479 8.52441H5.2106V15.9343H3.65479V8.52441Z" fill="white"/>
<path d="M16.9709 0.235352H2.252C1.13731 0.235352 0.230469 1.15041 0.230469 2.2752V17.1275C0.230469 18.2522 1.13731 19.1673 2.252 19.1673H16.9709C18.0856 19.1673 18.9925 18.2522 18.9925 17.1275V2.2752C18.9925 1.15041 18.0856 0.235352 16.9709 0.235352ZM6.30987 16.4887C6.30987 16.795 6.06377 17.0434 5.7602 17.0434H3.10505C2.80149 17.0434 2.55538 16.795 2.55538 16.4887V7.96955C2.55538 7.66324 2.80149 7.4149 3.10505 7.4149H5.7602C6.06377 7.4149 6.30987 7.66324 6.30987 7.96955V16.4887ZM4.43264 6.14783C3.39755 6.14783 2.55538 5.29807 2.55538 4.25356C2.55538 3.20904 3.39751 2.35928 4.43264 2.35928C5.46778 2.35928 6.30991 3.20904 6.30991 4.25356C6.30991 5.29807 5.46774 6.14783 4.43264 6.14783ZM16.8535 16.4887C16.8535 16.795 16.6074 17.0434 16.3038 17.0434H13.6311C13.3276 17.0434 13.0815 16.795 13.0815 16.4887V11.5355C13.0815 11.0371 12.6796 10.6315 12.1856 10.6315C11.6917 10.6315 11.2898 11.0371 11.2898 11.5355V16.4887C11.2898 16.795 11.0437 17.0434 10.7402 17.0434H8.08501C7.78144 17.0434 7.53534 16.795 7.53534 16.4887V7.96955C7.53534 7.66324 7.78144 7.4149 8.08501 7.4149H10.7402C10.9884 7.4149 11.1983 7.58096 11.2664 7.80904C11.7914 7.55149 12.3711 7.4149 12.9652 7.4149C15.1092 7.4149 16.8535 9.17495 16.8535 11.3383V16.4887H16.8535Z" fill="white"/>
<path d="M12.9653 8.52441C12.2786 8.52441 11.6186 8.77892 11.1068 9.24102C10.9452 9.38689 10.7138 9.42346 10.5159 9.33405C10.318 9.24479 10.1906 9.04649 10.1906 8.82773V8.52445H8.63477V15.9343H10.1906V11.5357C10.1906 10.4256 11.0856 9.52241 12.1857 9.52241C13.2858 9.52241 14.1809 10.4256 14.1809 11.5357V15.9343H15.7543V11.3386C15.7543 9.78683 14.5032 8.52441 12.9653 8.52441Z" fill="white"/>
</svg>
