<svg width="56" height="57" viewBox="0 0 56 57" fill="none" xmlns="http://www.w3.org/2000/svg">
<g opacity="0.3">
<circle cx="28" cy="28.8223" r="27.5" fill="#140359"/>
<circle cx="28" cy="28.8223" r="27.5" fill="url(#paint0_radial_2_2144)" fill-opacity="0.3"/>
<circle cx="28" cy="28.8223" r="27.5" fill="url(#paint1_radial_2_2144)" fill-opacity="0.2"/>
<circle cx="28" cy="28.8223" r="27.5" stroke="white"/>
</g>
<path d="M28.0785 35.0383C26.0985 35.0383 24.5325 34.2883 23.3805 32.7883L24.4065 31.8703C25.4265 33.1183 26.6565 33.7423 28.0965 33.7423C28.8765 33.7423 29.5305 33.5143 30.0585 33.0583C30.5865 32.6023 30.8505 32.0023 30.8505 31.2583C30.8505 30.4903 30.5265 29.8963 29.8785 29.4763C29.2305 29.0443 28.3785 28.8283 27.3225 28.8283H26.5125L26.2245 27.9823L30.2025 23.5003H24.0465V22.2223H32.0925V23.2663L28.1325 27.6583C29.3325 27.7543 30.3225 28.1023 31.1025 28.7023C31.8945 29.2903 32.2905 30.1363 32.2905 31.2403C32.2905 32.3443 31.8825 33.2563 31.0665 33.9763C30.2625 34.6843 29.2665 35.0383 28.0785 35.0383Z" fill="white"/>
<defs>
<radialGradient id="paint0_radial_2_2144" cx="0" cy="0" r="1" gradientUnits="userSpaceOnUse" gradientTransform="translate(28 28.8223) rotate(90) scale(28)">
<stop offset="0.826042" stop-color="#CA2DFF"/>
<stop offset="1" stop-opacity="0"/>
</radialGradient>
<radialGradient id="paint1_radial_2_2144" cx="0" cy="0" r="1" gradientUnits="userSpaceOnUse" gradientTransform="translate(28 28.8223) rotate(90) scale(28)">
<stop offset="0.242708" stop-color="#20C0FF"/>
<stop offset="1" stop-opacity="0"/>
</radialGradient>
</defs>
</svg>
